<?xml version="1.0" standalone="no"?>
<!DOCTYPE svg PUBLIC "-//W3C//DTD SVG 20010904//EN"
 "http://www.w3.org/TR/2001/REC-SVG-20010904/DTD/svg10.dtd">
<svg version="1.0" xmlns="http://www.w3.org/2000/svg"
 width="539.000000pt" height="539.000000pt" viewBox="0 0 539.000000 539.000000"
 preserveAspectRatio="xMidYMid meet">
<metadata>
Created by potrace 1.11, written by Peter Selinger 2001-2013
</metadata>
<g transform="translate(0.000000,539.000000) scale(0.100000,-0.100000)"
fill="#000000" stroke="none">
<path d="M1345 4040 l-1350 -1350 1345 -1345 c740 -740 1349 -1345 1355 -1345
6 0 615 605 1355 1345 l1345 1345 -1350 1350 -1350 1350 -1350 -1350z m2588
-228 l1117 -1117 -1120 -1120 -1120 -1120 0 960 0 959 40 -39 40 -39 0 -788
c0 -433 3 -788 7 -788 4 0 58 51 120 112 l113 113 0 555 0 555 248 -248 247
-247 85 85 85 85 -333 333 -332 332 0 795 0 795 730 -730 730 -730 87 88 88
87 -978 977 -977 978 0 137 c0 76 1 138 3 138 1 0 505 -503 1120 -1118z
m-2330 -134 l-968 -968 88 -87 87 -88 460 460 460 460 260 -260 260 -260 0
-995 0 -995 112 -112 c62 -62 116 -113 120 -113 5 0 8 444 8 987 l0 987 40
-39 40 -39 0 -1076 0 -1075 -1115 1115 -1115 1115 1112 1113 1113 1112 3 -137
3 -137 -968 -968z m1287 -247 l0 -795 -40 39 -40 39 0 795 0 795 40 -39 40
-39 0 -795z m-320 192 l0 -667 -40 39 -40 39 0 590 0 590 37 38 c20 21 38 38
40 38 2 0 3 -300 3 -667z m-320 0 l0 -348 -175 175 -175 175 172 172 c95 95
174 173 175 173 2 0 3 -156 3 -347z"/>
</g>
</svg>
